<svg width="750" height="750" version="1.1" xmlns="http://www.w3.org/2000/svg" desc="Created with imagetracer.js version 1.2.6" ><path fill="rgb(0,0,0)" stroke="rgb(0,0,0)" stroke-width="1" opacity="0" d="M 0 0 L 750 0 L 750 750 L 0 750 L 0 0 Z M 359 173 L 339 178 L 320 189 Q 303 202 295 223 L 289 221 Q 276 219 271 224 L 268 228 L 270 227 Q 281 226 285 232 L 279 234 Q 273 237 271 245 L 271 250 L 279 276 L 282 292 L 288 307 L 294 310 L 302 309 Q 320 291 322 257 L 328 266 Q 344 284 367 293 L 367 291 L 355 267 L 356 265 Q 372 277 396 282 L 398 282 L 391 275 L 381 264 L 391 268 L 403 269 L 404 270 L 427 269 L 445 263 Q 444 281 452 293 L 460 300 L 468 301 L 470 299 L 470 288 L 471 287 L 473 269 L 483 234 Q 483 219 476 212 L 466 203 L 449 199 L 446 197 L 449 186 L 449 175 L 432 183 L 419 187 L 398 191 L 370 193 Q 369 187 373 184 L 378 180 L 388 176 L 378 173 L 359 173 Z M 302 314 L 299 315 L 298 318 L 300 332 L 303 333 Q 302 351 310 361 L 317 366 L 328 369 L 343 369 L 348 368 Q 359 365 367 359 Q 375 353 378 343 L 378 340 L 383 340 Q 384 348 389 354 L 398 361 Q 406 367 419 369 Q 438 371 448 364 L 455 355 L 459 338 L 458 335 Q 457 332 460 333 L 463 326 Q 465 317 461 314 L 433 315 L 410 319 L 391 326 L 386 331 L 376 331 L 375 329 Q 366 322 352 319 L 329 315 L 302 314 Z M 172 417 L 172 429 L 188 429 L 188 430 L 188 473 L 203 473 L 203 429 L 219 429 L 219 418 L 219 417 L 172 417 Z M 231 417 L 231 473 L 275 473 L 275 461 L 246 461 L 246 450 L 272 450 L 272 438 L 246 438 L 246 430 L 247 429 L 275 429 L 275 418 L 275 417 L 231 417 Z M 298 417 L 289 426 L 289 465 L 298 473 L 329 473 L 336 466 L 336 453 L 322 453 L 322 459 L 319 462 L 306 462 L 304 459 L 304 432 L 306 430 L 307 428 L 319 428 Q 323 430 321 437 L 336 437 L 336 426 L 328 417 L 298 417 Z M 349 417 L 349 473 L 364 473 L 364 449 L 382 449 L 382 473 L 398 473 L 398 473 L 398 417 L 382 417 L 382 437 L 364 437 L 364 417 L 349 417 Z M 415 417 L 415 473 L 456 473 L 464 465 L 464 449 L 458 443 L 461 440 L 461 425 L 454 417 L 415 417 Z M 479 417 L 479 473 L 494 473 L 494 454 L 506 454 L 508 458 L 513 473 L 529 473 L 521 455 L 521 452 L 527 446 L 527 426 L 519 417 L 479 417 Z M 550 417 L 542 425 L 542 466 L 550 473 L 585 473 L 592 466 L 592 425 L 585 417 L 550 417 Z " /><path fill="rgb(0,0,0)" stroke="rgb(0,0,0)" stroke-width="1" opacity="0" d="M 315.5 323 L 332.5 323 L 352.5 327 L 363.5 332 L 369 337.5 L 369 345.5 Q 366.1 353.6 359.5 358 L 346.5 364 L 330.5 365 L 325.5 364 L 317 358.5 L 312 346.5 L 311 327.5 L 312 324 L 315.5 323 Z " /><path fill="rgb(0,0,0)" stroke="rgb(0,0,0)" stroke-width="1" opacity="0" d="M 428.5 323 L 445.5 323 L 449 324 L 450 326.5 L 450 340.5 L 447 353.5 L 441.5 361 L 430.5 365 L 420.5 365 Q 403.7 362.3 395 351.5 Q 391.1 347.4 392 338.5 L 396.5 333 L 412.5 326 L 428.5 323 Z " /><path fill="rgb(0,0,0)" stroke="rgb(0,0,0)" stroke-width="1" opacity="0" d="M 430 428 L 444.5 428 L 447 430.5 Q 448.3 436.8 444.5 438 L 430 438 L 430 428 Z " /><path fill="rgb(0,0,0)" stroke="rgb(0,0,0)" stroke-width="1" opacity="0" d="M 494 428 L 509.5 428 L 512 430.5 L 512 440.5 L 509.5 443 L 494 443 L 494 428 Z " /><path fill="rgb(0,0,0)" stroke="rgb(0,0,0)" stroke-width="1" opacity="0" d="M 559.5 428 L 574.5 428 L 577 430.5 L 577 459.5 L 574.5 462 L 559.5 462 L 557 459.5 L 557 430.5 L 559.5 428 Z " /><path fill="rgb(0,0,0)" stroke="rgb(0,0,0)" stroke-width="1" opacity="0" d="M 430 449 L 445.5 449 L 448 451.5 Q 450 460 445.5 462 L 430 462 L 430 449 Z " /><path fill="rgb(35,31,32)" stroke="rgb(35,31,32)" stroke-width="1" opacity="0.9803921568627451" d="M 362.5 173 L 373.5 173 L 387 175.5 L 378.5 179 L 372 184.5 Q 369 187.8 370 194 L 372.5 193 L 383.5 193 L 384.5 192 L 392.5 192 L 393.5 191 L 411.5 189 L 432.5 183 L 449 176 L 449 183.5 L 446 192.5 L 446 196.5 L 450.5 200 L 466.5 204 L 477 213.5 L 482 225.5 L 482 237.5 L 473 266.5 L 470 283.5 L 470 297.5 L 469 300 L 462.5 301 L 454 294.5 L 448 283.5 L 445 263 L 429.5 268 L 409.5 270 L 408.5 269 L 392.5 268 L 380.5 264 L 395.5 281 Q 371.2 276.3 354.5 264 L 354 265.5 L 367 292.5 L 365.5 292 Q 341.2 281.8 326 262.5 L 320.5 255 L 320 258.5 L 321 261.5 L 318 278.5 L 312 294.5 Q 308 303.5 300.5 309 L 295.5 310 L 291.5 309 L 287 304.5 L 283 293.5 L 275 259.5 L 272 252.5 L 272 242.5 L 277.5 235 L 285 231.5 Q 281.5 225.5 271.5 226 L 268.5 227 L 268.5 226 Q 274.3 220.3 286.5 221 L 294.5 224 Q 302.3 203.8 317.5 191 Q 326.8 182.8 339.5 178 L 362.5 173 Z " /><path fill="rgb(35,31,32)" stroke="rgb(35,31,32)" stroke-width="1" opacity="0.9803921568627451" d="M 302.5 314 L 323.5 315 L 324.5 316 L 332.5 316 L 349.5 319 L 363.5 323 Q 371.8 325.7 376.5 332 Q 378 329.5 383.5 331 L 384.5 332 L 388.5 328 L 397.5 323 L 416.5 318 L 436.5 316 L 437.5 315 L 459.5 314 L 463 318.5 L 462 319.5 L 462 328.5 L 459.5 333 L 458 333.5 L 458 342.5 L 453 357.5 L 445.5 365 Q 436.5 369.5 422.5 369 L 411.5 367 L 398.5 361 L 388 351.5 L 382.5 339 Q 378 338 377 340.5 L 377 344.5 L 374 350.5 L 364.5 360 L 349.5 367 L 338.5 369 L 330.5 369 L 315.5 365 L 309 358.5 Q 302.4 348.9 303 333 Q 300.3 334.1 301 331.5 Q 297.2 326.8 299 316.5 L 302.5 314 Z M 323 322 L 322 323 L 314 323 L 311 326 L 311 343 L 314 355 L 316 358 Q 320 364 329 365 Q 340 367 348 364 L 363 356 L 369 347 L 369 337 Q 362 329 351 326 L 337 323 L 325 323 L 323 322 Z M 438 322 L 437 323 L 425 323 L 411 326 L 395 334 L 392 338 Q 391 347 394 351 Q 402 362 418 365 Q 434 367 443 361 L 448 353 L 451 336 L 450 326 L 448 323 L 438 322 Z " /><path fill="rgb(37,48,81)" stroke="rgb(37,48,81)" stroke-width="1" opacity="0.611764705882353" d="M 358.5 173 L 362 173.5 L 358.5 174 L 358.5 173 Z " /><path fill="rgb(37,48,81)" stroke="rgb(37,48,81)" stroke-width="1" opacity="0.611764705882353" d="M 374.5 173 L 378 173.5 L 374.5 174 L 374.5 173 Z " /><path fill="rgb(37,48,81)" stroke="rgb(37,48,81)" stroke-width="1" opacity="0.611764705882353" d="M 351.5 174 L 354 174.5 L 351.5 175 L 351.5 174 Z " /><path fill="rgb(37,48,81)" stroke="rgb(37,48,81)" stroke-width="1" opacity="0.611764705882353" d="M 381.5 174 L 384 174.5 L 381.5 175 L 381.5 174 Z " /><path fill="rgb(37,48,81)" stroke="rgb(37,48,81)" stroke-width="1" opacity="0.611764705882353" d="M 387.5 175 L 386.5 177 L 387.5 175 Z " /><path fill="rgb(37,48,81)" stroke="rgb(37,48,81)" stroke-width="1" opacity="0.611764705882353" d="M 323.5 186 L 322.5 188 L 323.5 186 Z " /><path fill="rgb(37,48,81)" stroke="rgb(37,48,81)" stroke-width="1" opacity="0.611764705882353" d="M 319.5 189 L 318.5 191 L 319.5 189 Z " /><path fill="rgb(37,48,81)" stroke="rgb(37,48,81)" stroke-width="1" opacity="0.611764705882353" d="M 398.5 190 L 401 190.5 L 398.5 191 L 398.5 190 Z " /><path fill="rgb(37,48,81)" stroke="rgb(37,48,81)" stroke-width="1" opacity="0.611764705882353" d="M 390.5 191 L 393 191.5 L 390.5 192 L 390.5 191 Z " /><path fill="rgb(37,48,81)" stroke="rgb(37,48,81)" stroke-width="1" opacity="0.611764705882353" d="M 380.5 192 L 384 192.5 L 380.5 193 L 380.5 192 Z " /><path fill="rgb(37,48,81)" stroke="rgb(37,48,81)" stroke-width="1" opacity="0.611764705882353" d="M 309.5 199 L 307.5 202 L 309.5 199 Z " /><path fill="rgb(37,48,81)" stroke="rgb(37,48,81)" stroke-width="1" opacity="0.611764705882353" d="M 467.5 204 L 468.5 206 L 467.5 204 Z " /><path fill="rgb(37,48,81)" stroke="rgb(37,48,81)" stroke-width="1" opacity="0.611764705882353" d="M 471.5 207 L 475.5 212 L 471.5 207 Z " /><path fill="rgb(37,48,81)" stroke="rgb(37,48,81)" stroke-width="1" opacity="0.611764705882353" d="M 295.5 222 L 294.5 224 L 295.5 222 Z " /><path fill="rgb(37,48,81)" stroke="rgb(37,48,81)" stroke-width="1" opacity="0.611764705882353" d="M 270.5 224 L 269.5 226 L 270.5 224 Z " /><path fill="rgb(37,48,81)" stroke="rgb(37,48,81)" stroke-width="1" opacity="0.611764705882353" d="M 271.5 226 L 276 226.5 L 271.5 227 L 271.5 226 Z " /><path fill="rgb(37,48,81)" stroke="rgb(37,48,81)" stroke-width="1" opacity="0.611764705882353" d="M 482.5 229 L 483 233.5 L 482 233.5 L 482.5 229 Z " /><path fill="rgb(37,48,81)" stroke="rgb(37,48,81)" stroke-width="1" opacity="0.611764705882353" d="M 271.5 244 L 272 249.5 L 271 249.5 L 271.5 244 Z " /><path fill="rgb(37,48,81)" stroke="rgb(37,48,81)" stroke-width="1" opacity="0.611764705882353" d="M 320.5 255 Q 323.3 256.3 321 257.5 L 320.5 259 L 320.5 255 Z " /><path fill="rgb(37,48,81)" stroke="rgb(37,48,81)" stroke-width="1" opacity="0.611764705882353" d="M 323.5 259 L 325.5 262 L 323.5 259 Z " /><path fill="rgb(37,48,81)" stroke="rgb(37,48,81)" stroke-width="1" opacity="0.611764705882353" d="M 320.5 262 L 321 266.5 L 320 266.5 L 320.5 262 Z " /><path fill="rgb(37,48,81)" stroke="rgb(37,48,81)" stroke-width="1" opacity="0.611764705882353" d="M 328.5 265 L 334.5 272 L 328.5 265 Z " /><path fill="rgb(37,48,81)" stroke="rgb(37,48,81)" stroke-width="1" opacity="0.611764705882353" d="M 394.5 268 L 398 268.5 L 394.5 269 L 394.5 268 Z " /><path fill="rgb(37,48,81)" stroke="rgb(37,48,81)" stroke-width="1" opacity="0.611764705882353" d="M 424.5 268 L 427 268.5 L 424.5 269 L 424.5 268 Z " /><path fill="rgb(37,48,81)" stroke="rgb(37,48,81)" stroke-width="1" opacity="0.611764705882353" d="M 445.5 268 L 446 271.5 L 445 271.5 L 445.5 268 Z " /><path fill="rgb(37,48,81)" stroke="rgb(37,48,81)" stroke-width="1" opacity="0.611764705882353" d="M 403.5 269 L 409 269.5 L 403.5 270 L 403.5 269 Z " /><path fill="rgb(37,48,81)" stroke="rgb(37,48,81)" stroke-width="1" opacity="0.611764705882353" d="M 416.5 269 L 420 269.5 L 416.5 270 L 416.5 269 Z " /><path fill="rgb(37,48,81)" stroke="rgb(37,48,81)" stroke-width="1" opacity="0.611764705882353" d="M 391.5 275 L 397.5 282 L 395 281.5 L 396 280.5 L 391.5 275 Z " /><path fill="rgb(37,48,81)" stroke="rgb(37,48,81)" stroke-width="1" opacity="0.611764705882353" d="M 340.5 276 L 341.5 278 L 340.5 276 Z " /><path fill="rgb(37,48,81)" stroke="rgb(37,48,81)" stroke-width="1" opacity="0.611764705882353" d="M 471.5 276 L 472 278.5 L 471 278.5 L 471.5 276 Z " /><path fill="rgb(37,48,81)" stroke="rgb(37,48,81)" stroke-width="1" opacity="0.611764705882353" d="M 345.5 280 L 346.5 282 L 345.5 280 Z " /><path fill="rgb(37,48,81)" stroke="rgb(37,48,81)" stroke-width="1" opacity="0.611764705882353" d="M 470.5 283 L 471 286.5 L 470 286.5 L 470.5 283 Z " /><path fill="rgb(37,48,81)" stroke="rgb(37,48,81)" stroke-width="1" opacity="0.611764705882353" d="M 452.5 292 L 453.5 294 L 452.5 292 Z " /><path fill="rgb(37,48,81)" stroke="rgb(37,48,81)" stroke-width="1" opacity="0.611764705882353" d="M 306.5 303 L 301.5 309 L 306.5 303 Z " /><path fill="rgb(37,48,81)" stroke="rgb(37,48,81)" stroke-width="1" opacity="0.611764705882353" d="M 288.5 306 L 289.5 308 L 288.5 306 Z " /><path fill="rgb(37,48,81)" stroke="rgb(37,48,81)" stroke-width="1" opacity="0.611764705882353" d="M 308.5 314 L 317 314.5 L 308.5 315 L 308.5 314 Z " /><path fill="rgb(37,48,81)" stroke="rgb(37,48,81)" stroke-width="1" opacity="0.611764705882353" d="M 444.5 314 L 453 314.5 L 444.5 315 L 444.5 314 Z " /><path fill="rgb(37,48,81)" stroke="rgb(37,48,81)" stroke-width="1" opacity="0.611764705882353" d="M 460.5 314 L 461.5 316 L 460.5 314 Z " /><path fill="rgb(37,48,81)" stroke="rgb(37,48,81)" stroke-width="1" opacity="0.611764705882353" d="M 324.5 315 L 329 315.5 L 324.5 316 L 324.5 315 Z " /><path fill="rgb(37,48,81)" stroke="rgb(37,48,81)" stroke-width="1" opacity="0.611764705882353" d="M 432.5 315 L 437 315.5 L 432.5 316 L 432.5 315 Z " /><path fill="rgb(37,48,81)" stroke="rgb(37,48,81)" stroke-width="1" opacity="0.611764705882353" d="M 333.5 316 L 336 316.5 L 333.5 317 L 333.5 316 Z " /><path fill="rgb(37,48,81)" stroke="rgb(37,48,81)" stroke-width="1" opacity="0.611764705882353" d="M 425.5 316 L 429 316.5 L 425.5 317 L 425.5 316 Z " /><path fill="rgb(37,48,81)" stroke="rgb(37,48,81)" stroke-width="1" opacity="0.611764705882353" d="M 298.5 317 L 299 322.5 L 298 322.5 L 298.5 317 Z " /><path fill="rgb(37,48,81)" stroke="rgb(37,48,81)" stroke-width="1" opacity="0.611764705882353" d="M 339.5 317 L 342 317.5 L 339.5 318 L 339.5 317 Z " /><path fill="rgb(37,48,81)" stroke="rgb(37,48,81)" stroke-width="1" opacity="0.611764705882353" d="M 419.5 317 L 422 317.5 L 419.5 318 L 419.5 317 Z " /><path fill="rgb(37,48,81)" stroke="rgb(37,48,81)" stroke-width="1" opacity="0.611764705882353" d="M 462.5 319 L 463 325.5 L 462 325.5 L 462.5 319 Z " /><path fill="rgb(37,48,81)" stroke="rgb(37,48,81)" stroke-width="1" opacity="0.611764705882353" d="M 437.5 322 L 440 322.5 L 437.5 323 L 437.5 322 Z " /><path fill="rgb(37,48,81)" stroke="rgb(37,48,81)" stroke-width="1" opacity="0.611764705882353" d="M 333.5 323 L 337 323.5 L 333.5 324 L 333.5 323 Z " /><path fill="rgb(37,48,81)" stroke="rgb(37,48,81)" stroke-width="1" opacity="0.611764705882353" d="M 424.5 323 L 428 323.5 L 424.5 324 L 424.5 323 Z " /><path fill="rgb(37,48,81)" stroke="rgb(37,48,81)" stroke-width="1" opacity="0.611764705882353" d="M 340.5 324 L 343 324.5 L 340.5 325 L 340.5 324 Z " /><path fill="rgb(37,48,81)" stroke="rgb(37,48,81)" stroke-width="1" opacity="0.611764705882353" d="M 390.5 326 L 389.5 328 L 390.5 326 Z " /><path fill="rgb(37,48,81)" stroke="rgb(37,48,81)" stroke-width="1" opacity="0.611764705882353" d="M 450.5 329 L 451 335.5 L 450 335.5 L 450.5 329 Z " /><path fill="rgb(37,48,81)" stroke="rgb(37,48,81)" stroke-width="1" opacity="0.611764705882353" d="M 398.5 331 L 397.5 333 L 398.5 331 Z " /><path fill="rgb(37,48,81)" stroke="rgb(37,48,81)" stroke-width="1" opacity="0.611764705882353" d="M 365.5 333 L 368.5 337 L 365.5 333 Z " /><path fill="rgb(37,48,81)" stroke="rgb(37,48,81)" stroke-width="1" opacity="0.611764705882353" d="M 394.5 334 L 393.5 336 L 394.5 334 Z " /><path fill="rgb(37,48,81)" stroke="rgb(37,48,81)" stroke-width="1" opacity="0.611764705882353" d="M 458.5 335 L 459 337.5 L 458 337.5 L 458.5 335 Z " /><path fill="rgb(37,48,81)" stroke="rgb(37,48,81)" stroke-width="1" opacity="0.611764705882353" d="M 378.5 339 Q 383 338 384 340.5 L 383.5 342 L 383 340 L 378 340 L 378 342.5 L 377 342.5 L 378.5 339 Z " /><path fill="rgb(37,48,81)" stroke="rgb(37,48,81)" stroke-width="1" opacity="0.611764705882353" d="M 311.5 340 L 312 342.5 L 311 342.5 L 311.5 340 Z " /><path fill="rgb(37,48,81)" stroke="rgb(37,48,81)" stroke-width="1" opacity="0.611764705882353" d="M 449.5 341 L 450 344.5 L 449 344.5 L 449.5 341 Z " /><path fill="rgb(37,48,81)" stroke="rgb(37,48,81)" stroke-width="1" opacity="0.611764705882353" d="M 386.5 349 L 387.5 351 L 386.5 349 Z " /><path fill="rgb(37,48,81)" stroke="rgb(37,48,81)" stroke-width="1" opacity="0.611764705882353" d="M 372.5 352 L 366.5 359 L 372.5 352 Z " /><path fill="rgb(37,48,81)" stroke="rgb(37,48,81)" stroke-width="1" opacity="0.611764705882353" d="M 364.5 353 L 362.5 356 L 364.5 353 Z " /><path fill="rgb(37,48,81)" stroke="rgb(37,48,81)" stroke-width="1" opacity="0.611764705882353" d="M 389.5 353 L 393.5 358 L 389.5 353 Z " /><path fill="rgb(37,48,81)" stroke="rgb(37,48,81)" stroke-width="1" opacity="0.611764705882353" d="M 401.5 357 L 402.5 359 L 401.5 357 Z " /><path fill="rgb(37,48,81)" stroke="rgb(37,48,81)" stroke-width="1" opacity="0.611764705882353" d="M 396.5 359 L 397.5 361 L 396.5 359 Z " /><path fill="rgb(37,48,81)" stroke="rgb(37,48,81)" stroke-width="1" opacity="0.611764705882353" d="M 443.5 359 L 442.5 361 L 443.5 359 Z " /><path fill="rgb(37,48,81)" stroke="rgb(37,48,81)" stroke-width="1" opacity="0.611764705882353" d="M 451.5 359 L 447.5 364 L 451.5 359 Z " /><path fill="rgb(37,48,81)" stroke="rgb(37,48,81)" stroke-width="1" opacity="0.611764705882353" d="M 310.5 360 L 313.5 364 L 310.5 360 Z " /><path fill="rgb(37,48,81)" stroke="rgb(37,48,81)" stroke-width="1" opacity="0.611764705882353" d="M 361.5 361 L 360.5 363 L 361.5 361 Z " /><path fill="rgb(37,48,81)" stroke="rgb(37,48,81)" stroke-width="1" opacity="0.611764705882353" d="M 417.5 364 L 420 364.5 L 417.5 365 L 417.5 364 Z " /><path fill="rgb(37,48,81)" stroke="rgb(37,48,81)" stroke-width="1" opacity="0.611764705882353" d="M 327.5 368 L 330 368.5 L 327.5 369 L 327.5 368 Z " /><path fill="rgb(37,48,81)" stroke="rgb(37,48,81)" stroke-width="1" opacity="0.611764705882353" d="M 339.5 368 L 343 368.5 L 339.5 369 L 339.5 368 Z " /><path fill="rgb(37,48,81)" stroke="rgb(37,48,81)" stroke-width="1" opacity="0.611764705882353" d="M 418.5 368 L 422 368.5 L 418.5 369 L 418.5 368 Z " /><path fill="rgb(37,48,81)" stroke="rgb(37,48,81)" stroke-width="1" opacity="0.611764705882353" d="M 431.5 368 L 435 368.5 L 431.5 369 L 431.5 368 Z " /><path fill="rgb(37,48,81)" stroke="rgb(37,48,81)" stroke-width="1" opacity="0.611764705882353" d="M 172.5 417 L 173 428 L 189 428 L 189 472.5 L 188 472.5 L 188 429.5 L 187.5 429 L 172 429 L 172.5 417 Z " /><path fill="rgb(37,48,81)" stroke="rgb(37,48,81)" stroke-width="1" opacity="0.611764705882353" d="M 218.5 417 L 219 429 L 203 429 L 203 472.5 L 202 472.5 L 202 429.5 L 203.5 428 L 218 428 L 218.5 417 Z " /><path fill="rgb(37,48,81)" stroke="rgb(37,48,81)" stroke-width="1" opacity="0.611764705882353" d="M 231.5 417 L 232 472.5 L 231 472.5 L 231.5 417 Z " /><path fill="rgb(37,48,81)" stroke="rgb(37,48,81)" stroke-width="1" opacity="0.611764705882353" d="M 274.5 417 L 275 429 L 246.5 429 L 246 429.5 L 246 438 L 272 438 L 272 450 L 246 450 L 246 461 L 275 461 L 275 472.5 L 274 472.5 L 274 462 L 246.5 462 L 245 460.5 L 245 450.5 L 246.5 449 L 271 449 L 271 439 L 246.5 439 L 245 437.5 L 245 429.5 L 246.5 428 L 274 428 L 274.5 417 Z " /><path fill="rgb(37,48,81)" stroke="rgb(37,48,81)" stroke-width="1" opacity="0.611764705882353" d="M 297.5 417 L 290 425.5 L 290 464.5 L 298 472.5 L 289 464.5 L 289 425.5 L 297.5 417 Z " /><path fill="rgb(37,48,81)" stroke="rgb(37,48,81)" stroke-width="1" opacity="0.611764705882353" d="M 327.5 417 L 336 425.5 L 336 437 L 321 437 L 321 430.5 L 319.5 428 Q 323.5 429.7 322 436 L 335 436 L 335 425.5 L 327.5 417 Z " /><path fill="rgb(37,48,81)" stroke="rgb(37,48,81)" stroke-width="1" opacity="0.611764705882353" d="M 349.5 417 L 350 472.5 L 349 472.5 L 349.5 417 Z " /><path fill="rgb(37,48,81)" stroke="rgb(37,48,81)" stroke-width="1" opacity="0.611764705882353" d="M 363.5 417 L 364 437 L 382 437 L 382 417.5 L 383 417.5 L 383 438 L 364.5 438 L 363 436.5 L 363.5 417 Z " /><path fill="rgb(37,48,81)" stroke="rgb(37,48,81)" stroke-width="1" opacity="0.611764705882353" d="M 397.5 417 L 398 472.5 L 397 472.5 L 397.5 417 Z " /><path fill="rgb(37,48,81)" stroke="rgb(37,48,81)" stroke-width="1" opacity="0.611764705882353" d="M 453.5 417 L 461 425.5 L 460 425.5 L 453.5 417 Z " /><path fill="rgb(37,48,81)" stroke="rgb(37,48,81)" stroke-width="1" opacity="0.611764705882353" d="M 479.5 417 L 480 472.5 L 479 472.5 L 479.5 417 Z " /><path fill="rgb(37,48,81)" stroke="rgb(37,48,81)" stroke-width="1" opacity="0.611764705882353" d="M 518.5 417 L 527 425.5 L 527 445.5 L 521 451.5 L 520.5 454 L 520 451.5 L 526 445.5 L 526 425.5 L 518.5 417 Z " /><path fill="rgb(37,48,81)" stroke="rgb(37,48,81)" stroke-width="1" opacity="0.611764705882353" d="M 549.5 417 L 542.5 425 L 549.5 417 Z " /><path fill="rgb(37,48,81)" stroke="rgb(37,48,81)" stroke-width="1" opacity="0.611764705882353" d="M 583.5 417 L 592 424.5 L 592 465.5 L 584.5 473 L 583 472.5 L 591 464.5 L 591 425.5 L 583.5 417 Z " /><path fill="rgb(37,48,81)" stroke="rgb(37,48,81)" stroke-width="1" opacity="0.611764705882353" d="M 307.5 427 L 318 427.5 L 307.5 428 L 307.5 427 Z " /><path fill="rgb(37,48,81)" stroke="rgb(37,48,81)" stroke-width="1" opacity="0.611764705882353" d="M 430.5 427 L 444 427.5 L 430 428 L 430 438 L 444.5 438 Q 448 436.5 447.5 431 L 448 435.5 L 444.5 439 L 429 439 L 429 428.5 L 430.5 427 Z " /><path fill="rgb(37,48,81)" stroke="rgb(37,48,81)" stroke-width="1" opacity="0.611764705882353" d="M 494.5 427 L 509 427.5 L 494 428 L 493.5 443 L 493 428.5 L 494.5 427 Z " /><path fill="rgb(37,48,81)" stroke="rgb(37,48,81)" stroke-width="1" opacity="0.611764705882353" d="M 559.5 427 L 574 427.5 L 559.5 428 L 557 430.5 L 557 459.5 L 559.5 462 L 574.5 462 L 577 459.5 L 577 430.5 L 575 428.5 L 578 430.5 L 578 459.5 L 574.5 463 L 559.5 463 L 556 459.5 L 556 430.5 L 559.5 427 Z " /><path fill="rgb(37,48,81)" stroke="rgb(37,48,81)" stroke-width="1" opacity="0.611764705882353" d="M 305.5 428 L 306 429.5 L 304 431.5 L 304 458.5 L 306 461.5 L 304 460.5 L 303 458.5 L 303 431.5 L 305.5 428 Z " /><path fill="rgb(37,48,81)" stroke="rgb(37,48,81)" stroke-width="1" opacity="0.611764705882353" d="M 445.5 428 L 446.5 430 L 445.5 428 Z " /><path fill="rgb(37,48,81)" stroke="rgb(37,48,81)" stroke-width="1" opacity="0.611764705882353" d="M 510.5 428 L 513 430.5 L 513 440.5 L 510 442.5 L 512 440.5 L 512 430.5 L 510.5 428 Z " /><path fill="rgb(37,48,81)" stroke="rgb(37,48,81)" stroke-width="1" opacity="0.611764705882353" d="M 460.5 439 L 458 442.5 L 464 448.5 L 464 464.5 L 455.5 473 L 463 464.5 L 463 448.5 L 458.5 444 Q 456.3 444.8 457 442.5 L 460.5 439 Z " /><path fill="rgb(37,48,81)" stroke="rgb(37,48,81)" stroke-width="1" opacity="0.611764705882353" d="M 429 448 L 445.5 448 L 449 451.5 Q 451 461 445.5 463 L 430.5 463 L 429 461.5 L 429 448 Z M 430 449 L 430 462 L 446 462 Q 450 460 448 452 L 446 449 L 430 449 Z " /><path fill="rgb(37,48,81)" stroke="rgb(37,48,81)" stroke-width="1" opacity="0.611764705882353" d="M 363.5 449 L 364 472.5 L 363 472.5 L 363.5 449 Z " /><path fill="rgb(37,48,81)" stroke="rgb(37,48,81)" stroke-width="1" opacity="0.611764705882353" d="M 382.5 449 L 383 472.5 L 382 472.5 L 382.5 449 Z " /><path fill="rgb(37,48,81)" stroke="rgb(37,48,81)" stroke-width="1" opacity="0.611764705882353" d="M 335.5 453 L 336 465.5 L 327.5 473 L 335 464.5 L 335.5 453 Z " /><path fill="rgb(37,48,81)" stroke="rgb(37,48,81)" stroke-width="1" opacity="0.611764705882353" d="M 493.5 454 L 494 472.5 L 493 472.5 L 493.5 454 Z " /><path fill="rgb(37,48,81)" stroke="rgb(37,48,81)" stroke-width="1" opacity="0.611764705882353" d="M 506.5 454 L 508 456.5 L 507 456.5 L 506.5 454 Z " /><path fill="rgb(37,48,81)" stroke="rgb(37,48,81)" stroke-width="1" opacity="0.611764705882353" d="M 521.5 455 L 523 458.5 L 522 458.5 L 521.5 455 Z " /><path fill="rgb(37,48,81)" stroke="rgb(37,48,81)" stroke-width="1" opacity="0.611764705882353" d="M 508.5 458 L 511 464.5 L 510 464.5 L 508.5 458 Z " /><path fill="rgb(37,48,81)" stroke="rgb(37,48,81)" stroke-width="1" opacity="0.611764705882353" d="M 321.5 459 L 318.5 463 L 307 462.5 L 318.5 462 L 321.5 459 Z " /><path fill="rgb(37,48,81)" stroke="rgb(37,48,81)" stroke-width="1" opacity="0.611764705882353" d="M 523.5 460 L 525 463.5 L 524 463.5 L 523.5 460 Z " /><path fill="rgb(37,48,81)" stroke="rgb(37,48,81)" stroke-width="1" opacity="0.611764705882353" d="M 525.5 465 L 529 472.5 L 527 471.5 L 525.5 465 Z " /><path fill="rgb(37,48,81)" stroke="rgb(37,48,81)" stroke-width="1" opacity="0.611764705882353" d="M 542.5 465 L 549.5 473 L 542.5 465 Z " /><path fill="rgb(37,48,81)" stroke="rgb(37,48,81)" stroke-width="1" opacity="0.611764705882353" d="M 511.5 466 L 513 469.5 L 512 469.5 L 511.5 466 Z " /><path fill="rgb(38,49,81)" stroke="rgb(38,49,81)" stroke-width="1" opacity="0.996078431372549" d="M 173 417 L 217.5 417 L 218 417.5 L 218 428 L 203.5 428 L 202 429.5 L 202 472.5 L 201.5 473 L 189 473 L 189 428.5 L 188.5 428 L 173 428 L 173 417 Z " /><path fill="rgb(38,49,81)" stroke="rgb(38,49,81)" stroke-width="1" opacity="0.996078431372549" d="M 232 417 L 273.5 417 L 274 417.5 L 274 428 L 246.5 428 L 245 429.5 L 245 437.5 L 246.5 439 L 271 439 L 271 449 L 246.5 449 L 245 450.5 L 245 460.5 L 246.5 462 L 274 462 L 274 473 L 232 473 L 232 417 Z " /><path fill="rgb(38,49,81)" stroke="rgb(38,49,81)" stroke-width="1" opacity="0.996078431372549" d="M 298.5 417 L 326.5 417 L 335 425.5 L 335 436 L 322 436 Q 323.5 429.7 319.5 428 Q 315.7 425.3 307.5 427 L 304 429.5 L 303 431.5 L 303 458.5 L 305.5 462 L 307.5 463 L 318.5 463 Q 323.8 461 322 453 L 335 453 L 335 464.5 L 326.5 473 L 298.5 473 L 290 464.5 L 290 425.5 L 298.5 417 Z " /><path fill="rgb(38,49,81)" stroke="rgb(38,49,81)" stroke-width="1" opacity="0.996078431372549" d="M 350 417 L 363 417 L 363 436.5 L 364.5 438 L 383 438 L 383 417 L 397 417 L 397 472.5 L 396.5 473 L 383 473 L 383 449 L 363 449 L 363 473 L 350 473 L 350 417 Z " /><path fill="rgb(38,49,81)" stroke="rgb(38,49,81)" stroke-width="1" opacity="0.996078431372549" d="M 415 417 L 452.5 417 L 460 424.5 L 461 426.5 L 461 438.5 L 457 444 L 463 448.5 L 463 464.5 L 454.5 473 L 415 473 L 415 417 Z M 431 427 L 429 429 L 429 439 L 445 439 L 448 436 L 447 430 L 444 427 L 431 427 Z M 429 448 L 429 462 L 431 463 L 446 463 Q 451 461 449 452 L 446 448 L 429 448 Z " /><path fill="rgb(38,49,81)" stroke="rgb(38,49,81)" stroke-width="1" opacity="0.996078431372549" d="M 480 417 L 517.5 417 L 526 425.5 L 526 445.5 L 520 451.5 L 520 453.5 L 528 472.5 L 514 473 L 506.5 454 L 493 454 L 493 473 L 480 473 L 480 417 Z M 495 427 L 493 429 L 493 443 L 511 443 L 513 441 L 513 431 L 509 427 L 495 427 Z " /><path fill="rgb(38,49,81)" stroke="rgb(38,49,81)" stroke-width="1" opacity="0.996078431372549" d="M 550.5 417 L 582.5 417 L 591 425.5 L 591 464.5 L 582.5 473 L 550.5 473 L 542 464.5 L 542 425.5 L 550.5 417 Z M 560 427 L 556 431 L 556 460 L 560 463 L 575 463 L 578 460 L 578 431 L 574 427 L 560 427 Z " /></svg>